<svg id="Capa_1" data-name="Capa 1" xmlns="http://www.w3.org/2000/svg" xmlns:xlink="http://www.w3.org/1999/xlink" viewBox="0 0 1157.31 818.75"><defs><style>.cls-1{fill:url(#Degradado_sin_nombre_83);}</style><linearGradient id="Degradado_sin_nombre_83" x1="739.52" y1="564.49" x2="-496.39" y2="-39.91" gradientUnits="userSpaceOnUse"><stop offset="0" stop-color="#5569a4"/><stop offset="1" stop-color="#b80e66"/></linearGradient></defs><title>blop1</title><path class="cls-1" d="M-68.1,8.63C-31.51-24.3,37.29-26.5,95.1-52.84c57.81-27.08,104.65-79,144.17-74.65s71,65.87,174.17,91.48C516.63-9.66,690.8-19.18,783,43s101.72,196.12,16.83,259.79c-84.16,64.4-263.45,57.82-368.83,98.8-106.12,40.25-138.32,128.8-208.57,193.2S43.14,700.2-67.36,689.22-290.57,616-298.62,520.17C-306.67,425-211.53,296.24-161,200.37S-105.42,41.56-68.1,8.63Z" transform="translate(299.1 127.75)"/></svg>