<?xml version="1.0" standalone="no"?>
<svg viewBox="0 0 200 200" xmlns="http://www.w3.org/2000/svg">
  <path fill="#FF0066" d="M35.6,-51.4C46.9,-48.3,57.1,-39.5,67.2,-27.7C77.3,-15.8,87.3,-0.9,85.7,12.5C84,25.9,70.6,37.7,58.1,48.1C45.6,58.5,34,67.4,21.2,70.1C8.4,72.9,-5.5,69.6,-20.5,66.7C-35.5,63.7,-51.6,61.2,-60.2,51.9C-68.8,42.5,-70,26.4,-72.1,10.5C-74.2,-5.4,-77.3,-21.1,-69.3,-28.7C-61.2,-36.4,-42.1,-36,-28.7,-38.1C-15.3,-40.3,-7.6,-44.9,2.3,-48.5C12.2,-52.1,24.4,-54.6,35.6,-51.4Z" transform="translate(100 100)" />
</svg>
