<svg id="Capa_1" data-name="Capa 1" xmlns="http://www.w3.org/2000/svg" viewBox="0 0 466.51 201.96"><defs><style>.cls-1{fill:#1791b1;}.cls-2,.cls-3{fill:#11265c;}.cls-3{stroke:#1791b1;stroke-miterlimit:10;stroke-width:5px;}</style></defs><title>logoAlex</title><path class="cls-1" d="M703.08,375.64c-17.41-20.65-39.17-34.58-65.57-40.44-38.32-8.5-72.88-.36-102.76,25.42-20.39,17.59-32.72,40-38,66.27-2.44,12-1.84,24.31-1.83,36.5,0,4.86-.56,9.78.58,14.54a23.84,23.84,0,0,0,45.37,3.41c.32-.8.63-1.59,1.13-2.83,1,4.43-.21,8.59.81,12.63,2.88,11.42,11.1,18.86,22.57,19.39a23.48,23.48,0,0,0,23.09-15.24c.18-.45.41-.89,1-2.06.09,16.21,6.22,27.62,23,29.08,11.69,1,19.63-5.57,24.48-16.17.11,8.23,1.89,15.57,8.07,21.42a23.84,23.84,0,0,0,25.34,4.54C679.11,528.41,685,520,685,511c0-14.47,0-28.94.23-43.52,2.26,5.77,5.37,10.79,10.74,14.18,15.07,9.52,35.29-.35,36.34-18.15C734.22,430.42,724.51,401,703.08,375.64Zm20,85.28c-.29,10.56-10,17.39-19.41,13.89-5.84-2.17-9-7.23-9.24-14.76-.19-5.48.51-11-.48-16.44a8.65,8.65,0,0,0-7.64-7.07c-6.62-.72-10.93,3.48-11,11-.1,10.49,0,21,0,31.46h-.09c0,10.73.11,21.47,0,32.2-.1,6.88-6,12.68-12.89,13.09-8.85.54-15.58-6.15-15.61-15.7q-.08-31.27,0-62.54c0-3.35-1-6.07-3.83-8a9,9,0,0,0-9.57-.68,9.61,9.61,0,0,0-5.39,9.12c0,17-.23,34,.11,50.93.14,6.82-4.47,15.13-14.25,15.53-8.13.32-14.38-6.69-14.38-15.75,0-17,0-34,0-50.94,0-5.78-3.93-9.77-9.46-9.76-5.72,0-9.29,3.71-9.29,9.73,0,13.24,0,26.47,0,39.7,0,8.4-6.44,15.18-14.37,15.07-8.71-.13-14.41-8-14.26-14.76.28-12.6,0-25.21.08-37.82a16.15,16.15,0,0,0-.71-5.53c-1.21-3.4-3.44-5.75-7.14-6.29-4-.58-7.31.64-9.63,4.23-1.61,2.49-1.45,5.21-1.53,7.92-.26,8.6.54,17.23-.44,25.81a14.2,14.2,0,0,1-13.78,12.25c-6.59.07-13.22-5.07-14-11.63a164.79,164.79,0,0,1,.91-43.59,102,102,0,0,1,26.79-55.33C560.05,347,593.94,335.9,633,344.1,688,355.64,724.68,404.91,723.12,460.92Z" transform="translate(-494.77 -331.96)"/><path class="cls-2" d="M633,344.1c-39-8.2-72.94,2.94-100.42,32.17a102,102,0,0,0-26.79,55.33,164.79,164.79,0,0,0-.91,43.59c.74,6.56,7.37,11.7,14,11.63a14.2,14.2,0,0,0,13.78-12.25c1-8.58.18-17.21.44-25.81.08-2.71-.08-5.43,1.53-7.92,2.32-3.59,5.59-4.81,9.63-4.23,3.7.54,5.93,2.89,7.14,6.29a16.15,16.15,0,0,1,.71,5.53c0,12.61.2,25.22-.08,37.82-.15,6.78,5.55,14.63,14.26,14.76,7.93.11,14.34-6.67,14.37-15.07,0-13.23,0-26.46,0-39.7,0-6,3.57-9.73,9.29-9.73,5.53,0,9.45,4,9.46,9.76,0,17,0,34,0,50.94,0,9.06,6.25,16.07,14.38,15.75,9.78-.4,14.39-8.71,14.25-15.53-.34-17-.12-33.95-.11-50.93a9.61,9.61,0,0,1,5.39-9.12,9,9,0,0,1,9.57.68c2.8,1.91,3.84,4.63,3.83,8q-.08,31.27,0,62.54c0,9.55,6.76,16.24,15.61,15.7,6.88-.41,12.79-6.21,12.89-13.09.15-10.73,0-21.47,0-32.2h.09c0-10.49-.07-21,0-31.46.06-7.51,4.37-11.71,11-11a8.65,8.65,0,0,1,7.64,7.07c1,5.45.29,11,.48,16.44.25,7.53,3.4,12.59,9.24,14.76,9.41,3.5,19.12-3.33,19.41-13.89C724.68,404.91,688,355.64,633,344.1Zm-67,24.37a8.55,8.55,0,0,1,9.7-1.51c3.9,1.79,5.55,5.07,5.71,9.33-.33,1.2.44,2.68-.69,3.83-2.54,2.56-5.09,5.12-7.65,7.65-.39.39-.87,1.12-1.5.46-2.9-3.05-7.07-5.33-8.47-9.22A9.55,9.55,0,0,1,566,368.47ZM549,397c-2.31-2.94-2.95-6.25-1.16-9.74,2-3.87,5.38-5.25,9.51-5.3,3.15,0,3.15,0,8.93,5.77,3.44,3.44,3.51,3.51-.09,6.91-2.13,2-3.63,5.19-6.68,5.69C555.68,401,551.72,400.41,549,397Zm32.35,8.48c0,6.38-3.77,10.79-9.08,10.93s-8.84-3.83-9.56-9.88c-.47-4,2.34-5.76,4.54-8,4.89-5,5-5,9.8,0C579.05,400.56,582.29,402,581.38,405.47Zm12.08-6.84c-3.71,2.68-9.1,2.41-12.14-.63-2.19-2.2-6.22-4.61-6-6.61.23-2.51,4-4.69,6.14-7,1.38-1.48,2.74-3,4.79-2.38,4.49-.19,7.85,1.35,10,5A9.21,9.21,0,0,1,593.46,398.63Zm64.11-32.43c5,0,9.46,4.36,9.33,9.2a9.31,9.31,0,0,1-9.26,8.82c-5.08,0-9.45-4.29-9.3-9.13A9.32,9.32,0,0,1,657.57,366.2Zm-15.7,34.21a9.43,9.43,0,0,1-9.45-9.1,9.56,9.56,0,0,1,9.26-9.33,9.22,9.22,0,0,1,.19,18.43Zm15.84,16a9.63,9.63,0,0,1-9.39-9.24,9.49,9.49,0,0,1,9.2-9c5.08,0,9.49,4.26,9.38,9.15A9.58,9.58,0,0,1,657.71,416.4Zm15.74-16a9,9,0,0,1-8.8-9.18,9.23,9.23,0,0,1,8.78-9.25,9.46,9.46,0,0,1,9.29,9.24A9.19,9.19,0,0,1,673.45,400.41Z" transform="translate(-494.77 -331.96)"/><path class="cls-1" d="M557.38,382c-4.13.05-7.53,1.43-9.51,5.3-1.79,3.49-1.15,6.8,1.16,9.74,2.69,3.42,6.65,4,10.51,3.33,3.05-.5,4.55-3.67,6.68-5.69,3.6-3.4,3.53-3.47.09-6.91C560.53,381.94,560.53,381.94,557.38,382Z" transform="translate(-494.77 -331.96)"/><path class="cls-1" d="M581.38,405.47c.91-3.48-2.33-4.91-4.3-7-4.81-5-4.91-5-9.8,0-2.2,2.23-5,4-4.54,8,.72,6.05,4.27,10,9.56,9.88S581.39,411.85,581.38,405.47Z" transform="translate(-494.77 -331.96)"/><path class="cls-1" d="M586.22,382c-2.05-.59-3.41.9-4.79,2.38-2.19,2.34-5.91,4.52-6.14,7-.19,2,3.84,4.41,6,6.61,3,3,8.43,3.31,12.14.63A9.21,9.21,0,0,0,596.18,387C594.07,383.33,590.71,381.79,586.22,382Z" transform="translate(-494.77 -331.96)"/><path class="cls-1" d="M581.44,376.29c-.16-4.26-1.81-7.54-5.71-9.33a8.55,8.55,0,0,0-9.7,1.51,9.55,9.55,0,0,0-2.9,10.54c1.4,3.89,5.57,6.17,8.47,9.22.63.66,1.11-.07,1.5-.46,2.56-2.53,5.11-5.09,7.65-7.65C581.88,379,581.11,377.49,581.44,376.29Z" transform="translate(-494.77 -331.96)"/><path class="cls-1" d="M650.59,391.12a9.1,9.1,0,0,0-8.91-9.14,9.56,9.56,0,0,0-9.26,9.33,9.43,9.43,0,0,0,9.45,9.1A9.11,9.11,0,0,0,650.59,391.12Z" transform="translate(-494.77 -331.96)"/><path class="cls-1" d="M657.64,384.22a9.31,9.31,0,0,0,9.26-8.82c.13-4.84-4.31-9.22-9.33-9.2a9.32,9.32,0,0,0-9.23,8.89C648.19,379.93,652.56,384.23,657.64,384.22Z" transform="translate(-494.77 -331.96)"/><path class="cls-1" d="M664.65,391.23a9,9,0,0,0,8.8,9.18,9.19,9.19,0,0,0,9.27-9.19,9.46,9.46,0,0,0-9.29-9.24A9.23,9.23,0,0,0,664.65,391.23Z" transform="translate(-494.77 -331.96)"/><path class="cls-1" d="M657.52,398.18a9.49,9.49,0,0,0-9.2,9,9.29,9.29,0,0,0,18.58.17C667,402.44,662.6,398.14,657.52,398.18Z" transform="translate(-494.77 -331.96)"/><path class="cls-3" d="M758.34,471.48h0A18.38,18.38,0,0,1,740,453.1V392.25a18.38,18.38,0,0,1,18.38-18.38h0a18.38,18.38,0,0,1,18.38,18.38V453.1A18.38,18.38,0,0,1,758.34,471.48Z" transform="translate(-494.77 -331.96)"/><path class="cls-3" d="M864.33,452.32V454a4.94,4.94,0,0,1-1,3q-12,15.68-33.75,15.67-18.68,0-30-11.16T788.2,432.08q0-17.34,10.43-28.27t27.1-10.94a40,40,0,0,1,15.76,3.07A34.7,34.7,0,0,1,854,405a37.5,37.5,0,0,1,7.79,13.82,56.93,56.93,0,0,1,2.35,13.86,5.06,5.06,0,0,1-5.07,5.33H836.52c-4.88,0-7,6.32-3,9.14l.1.07a18.57,18.57,0,0,0,10.88,3.32,27.67,27.67,0,0,0,12.43-2.68A5.1,5.1,0,0,1,864.33,452.32Zm-38.66-27.85h15.12a1,1,0,0,0,1.05-1.11,15,15,0,0,0-2.58-7.88,7.5,7.5,0,0,0-6.28-3.23,7.39,7.39,0,0,0-5.88,3.1c-1.52,1.88-2.34,4.56-2.48,8A1,1,0,0,0,825.67,424.47Z" transform="translate(-494.77 -331.96)"/><path class="cls-3" d="M950.08,471.48H926.39a3.68,3.68,0,0,1-3.08-1.66l-8.9-13.56-8.9,13.56a3.68,3.68,0,0,1-3.08,1.66H881.48a8.42,8.42,0,0,1-6.83-13.34l18.59-25.8-18.18-24.42a8.42,8.42,0,0,1,6.75-13.45h23.56a3.66,3.66,0,0,1,3,1.63l8.9,13.27,8.55-13.22a3.68,3.68,0,0,1,3.09-1.68h21.38a8.42,8.42,0,0,1,6.82,13.35l-18.54,25.67L956.84,458A8.42,8.42,0,0,1,950.08,471.48Z" transform="translate(-494.77 -331.96)"/></svg>